<svg xmlns="http://www.w3.org/2000/svg" width="500" height="309" viewBox="0 0 500 309" xmlns:xlink="http://www.w3.org/1999/xlink">
  <defs>
    <rect id="a" width="433.071" height="768.747" x="32.808" y="124.626" rx="10"/>
  </defs>
  <g fill="none" fill-rule="evenodd" transform="translate(0 -708)">
    <path fill="#FFFFFF" d="M496.062992,291.231959 L499.01765,291.231959 C499.560187,291.231959 500,290.792829 500,290.245355 L500,217.442789 C500,216.897903 499.559281,216.456186 499.01765,216.456186 L496.062992,216.456186 L496.062992,49.2076505 C496.062992,22.0310156 474.023183,0 446.84682,0 L51.8408442,0 C24.6595028,0 2.62467192,22.0301345 2.62467192,49.2076505 L2.62467192,128.561856 L0.982349763,128.561856 C0.43981297,128.561856 0,129.004711 0,129.546976 L0,168.244262 C0,168.788328 0.440719149,169.229381 0.982349763,169.229381 L2.62467192,169.229381 L2.62467192,216.456186 L0.982349763,216.456186 C0.43981297,216.456186 0,216.895315 0,217.442789 L0,290.245355 C0,290.790241 0.440719149,291.231959 0.982349763,291.231959 L2.62467192,291.231959 L2.62467192,308.286082 L0.982349763,308.286082 C0.43981297,308.286082 0,308.725212 0,309.272686 L0,382.075252 C0,382.620138 0.440719149,383.061856 0.982349763,383.061856 L2.62467192,383.061856 L2.62467192,968.792349 C2.62467192,995.968984 24.6644811,1018 51.8408442,1018 L446.84682,1018 C474.028161,1018 496.062992,995.969866 496.062992,968.792349 L496.062992,291.231959 Z M42.810513,123.314433 C37.286498,123.314433 32.808399,127.792831 32.808399,133.315402 L32.808399,882.060886 C32.808399,887.584269 37.2891797,892.061856 42.810513,892.061856 L455.877151,892.061856 C461.401166,892.061856 465.879265,887.583458 465.879265,882.060886 L465.879265,133.315402 C465.879265,127.792019 461.398484,123.314433 455.877151,123.314433 L42.810513,123.314433 Z M170.603675,72.1520619 C174.952373,72.1520619 178.47769,68.6280351 178.47769,64.2809278 C178.47769,59.9338206 174.952373,56.4097938 170.603675,56.4097938 C166.254976,56.4097938 162.729659,59.9338206 162.729659,64.2809278 C162.729659,68.6280351 166.254976,72.1520619 170.603675,72.1520619 Z M250.656168,38.0438144 C253.555301,38.0438144 255.905512,35.6944633 255.905512,32.7963918 C255.905512,29.8983202 253.555301,27.5489691 250.656168,27.5489691 C247.757035,27.5489691 245.406824,29.8983202 245.406824,32.7963918 C245.406824,35.6944633 247.757035,38.0438144 250.656168,38.0438144 Z M213.916264,60.3453608 C211.738875,60.3453608 209.973753,62.1117969 209.973753,64.2809278 C209.973753,66.4544815 211.73906,68.2164948 213.916264,68.2164948 L286.083736,68.2164948 C288.261125,68.2164948 290.026247,66.4500587 290.026247,64.2809278 C290.026247,62.1073742 288.26094,60.3453608 286.083736,60.3453608 L213.916264,60.3453608 Z"/>
    <use fill="#F0F0F0" xlink:href="#a"/>
    <ellipse cx="253.058" cy="948.044" fill="#F93936" rx="38.058" ry="38.044"/>
    <path fill="#F93936" d="M265.746442,813.632245 C268.555505,810.823181 271.274448,811.72764 271.82183,815.670125 L277.306774,855.175092 C277.853054,859.109646 275.114248,861.857485 271.171763,861.310104 L231.666795,855.82516 C227.732241,855.278879 226.822397,852.55629 229.628915,849.749772 L265.746442,813.632245 Z" transform="rotate(45 252.688 836.69)"/>
  </g>
</svg>
