<svg xmlns="http://www.w3.org/2000/svg" width="493" height="309" viewBox="0 0 493 309">
  <g fill="none" fill-rule="evenodd">
    <path fill="#FFFFFF" d="M0,262 L0,0 L493,0 L493,262 C493,287.957383 471.954431,309 446.008172,309 L46.9918281,309 C21.0389581,309 0,287.963091 0,262 Z"/>
    <path fill="#F0F0F0" d="M30,176 L30,0 L463,0 L463,176 C463,180.970563 458.973,185 454.005939,185 L38.9940606,185 C34.0267781,185 30,180.971656 30,176 Z"/>
    <circle cx="246" cy="240" r="38" fill="#F93936"/>
    <path fill="#F93936" d="M258.692317,105.701068 C261.50252,102.890865 264.223417,103.801813 264.76895,107.730985 L269.913593,144.784957 C270.459421,148.716252 267.712834,151.460421 263.783662,150.914887 L226.72969,145.770245 C222.798395,145.224417 221.893168,142.500217 224.699774,139.693611 L258.692317,105.701068 Z" transform="rotate(45 246.5 127.5)"/>
  </g>
</svg>
