<svg xmlns="http://www.w3.org/2000/svg" width="262" height="62" viewBox="0 0 262 62">
  <path fill="#FFFFFF" fill-rule="evenodd" d="M622.38,477.725117 L634.356321,477.725117 L634.356321,417.84 L622.38,417.84 L622.38,477.725117 Z M673.319284,477.725117 L684.816551,477.725117 L684.816551,449.932689 C684.816551,442.048877 680.345392,435.67812 670.444967,435.67812 C665.814123,435.67812 661.742174,437.191175 658.308962,442.128512 L658.149277,442.128512 L658.149277,436.793003 L647.131063,436.793003 L647.131063,477.725117 L658.62833,477.725117 L658.62833,454.471854 C658.62833,448.897441 661.502647,444.915718 666.133491,444.915718 C669.726387,444.915718 673.319284,446.90658 673.319284,452.79953 L673.319284,477.725117 Z M730.007201,449.215979 C729.368464,440.296919 722.422198,435.67812 711.883036,435.67812 C699.747031,435.67812 694.876661,442.526684 694.876661,448.817807 C694.876661,465.700313 719.468039,459.488825 719.468039,466.337389 C719.468039,469.682037 715.635616,470.558016 712.681457,470.558016 C709.248245,470.558016 705.735191,468.965326 705.575507,464.983603 L694.078239,464.983603 C695.036345,477.088042 706.533613,478.84 712.282247,478.84 C729.20878,478.84 730.965307,468.328251 730.965307,465.142872 C730.965307,448.578903 705.415823,454.949661 705.415823,447.62329 C705.415823,445.154621 708.449824,443.960104 711.483825,443.960104 C715.875143,443.960104 718.350249,446.030601 718.509933,449.454883 L730.007201,449.215979 Z M736.155046,445.552794 L741.424627,445.552794 L741.424627,467.531906 C741.424627,476.371332 745.975628,478.202924 753.480789,478.202924 C755.317158,478.202924 757.153528,477.964021 758.989897,477.725117 L758.989897,468.726423 C758.271318,468.885692 757.63258,468.965326 756.674475,468.965326 C753.720316,468.965326 752.921894,468.089347 752.921894,466.257755 L752.921894,445.552794 L758.989897,445.552794 L758.989897,436.793003 L752.921894,436.793003 L752.921894,425.007102 L741.424627,425.007102 L741.424627,436.793003 L736.155046,436.793003 L736.155046,445.552794 Z M793.242174,463.629817 C793.242174,468.567154 787.413698,470.558016 783.820801,470.558016 C779.988379,470.558016 776.635009,469.443133 776.635009,465.779948 C776.635009,462.833473 778.391536,461.240783 783.661117,460.762977 L793.242174,459.886997 L793.242174,463.629817 Z M793.721226,477.725117 L804.819284,477.725117 C804.499915,476.212063 804.260389,474.778642 804.260389,472.628512 L804.260389,448.897441 C804.260389,439.500574 795.797122,435.67812 785.657171,435.67812 C771.285586,435.67812 766.814426,443.721201 766.415216,450.012324 L777.43343,450.012324 C777.672957,446.349138 780.467432,443.960104 785.178118,443.960104 C790.208172,443.960104 793.242174,446.349138 793.242174,451.206841 L793.242174,453.118068 L782.623169,453.755144 C766.5749,454.710757 765.137741,461.957493 765.137741,466.337389 C765.137741,475.654621 773.042113,478.84 779.509326,478.84 C784.299854,478.84 789.72912,477.40658 793.561542,472.389608 L793.721226,472.389608 L793.721226,477.725117 Z M841.786193,477.725117 L853.283461,477.725117 L853.283461,449.932689 C853.283461,442.048877 848.812301,435.67812 838.911876,435.67812 C834.281032,435.67812 830.209083,437.191175 826.775871,442.128512 L826.616187,442.128512 L826.616187,436.793003 L815.597972,436.793003 L815.597972,477.725117 L827.09524,477.725117 L827.09524,454.471854 C827.09524,448.897441 829.969557,444.915718 834.600401,444.915718 C838.193297,444.915718 841.786193,446.90658 841.786193,452.79953 L841.786193,477.725117 Z M860.229727,445.552794 L865.499308,445.552794 L865.499308,467.531906 C865.499308,476.371332 870.05031,478.202924 877.555471,478.202924 C879.39184,478.202924 881.228209,477.964021 883.064578,477.725117 L883.064578,468.726423 C882.345999,468.885692 881.707262,468.965326 880.749156,468.965326 C877.794997,468.965326 876.996576,468.089347 876.996576,466.257755 L876.996576,445.552794 L883.064578,445.552794 L883.064578,436.793003 L876.996576,436.793003 L876.996576,425.007102 L865.499308,425.007102 L865.499308,436.793003 L860.229727,436.793003 L860.229727,445.552794 Z" transform="translate(-622 -417)"/>
</svg>
